<svg width="14" height="16" fill="none" xmlns="http://www.w3.org/2000/svg"><path opacity=".4" d="M14 11.25V.75c0-.415625-.3344-.75-.75-.75H3C1.34375 0 0 1.34375 0 3v10c0 1.6562 1.34375 3 3 3h10.25c.4156 0 .75-.3344.75-.75v-.5c0-.2344-.1094-.4469-.2781-.5844-.1313-.4812-.1313-1.8531 0-2.3343.1687-.1344.2781-.3469.2781-.5813ZM4 4.1875C4 4.08437 4.08437 4 4.1875 4h6.625c.1031 0 .1875.08437.1875.1875v.625c0 .10313-.0844.1875-.1875.1875h-6.625C4.08437 5 4 4.91563 4 4.8125v-.625Zm0 2C4 6.08437 4.08437 6 4.1875 6h6.625c.1031 0 .1875.08437.1875.1875v.625c0 .10313-.0844.1875-.1875.1875h-6.625C4.08437 7 4 6.91563 4 6.8125v-.625ZM11.9187 14H3c-.55312 0-1-.4469-1-1 0-.55.45-1 1-1h8.9187c-.0593.5344-.0593 1.4656 0 2Z" fill="#9FA2B4"/></svg>