<svg width="16" height="12" fill="none" xmlns="http://www.w3.org/2000/svg"><path opacity=".4" d="M2.4 5.20002c.8825 0 1.6-.7175 1.6-1.6 0-.8825-.7175-1.6-1.6-1.6-.8825 0-1.6.7175-1.6 1.6 0 .8825.7175 1.6 1.6 1.6Zm11.2 0c.8825 0 1.6-.7175 1.6-1.6 0-.8825-.7175-1.6-1.6-1.6-.8825 0-1.6.7175-1.6 1.6 0 .8825.7175 1.6 1.6 1.6Zm.8.8h-1.6c-.44 0-.8375.17751-1.1275.465 1.0075.55251 1.7225 1.55001 1.8775 2.73501h1.65c.4425 0 .8-.3575.8-.8v-.8c0-.8825-.7175-1.60001-1.6-1.60001Zm-6.4 0c1.5475 0 2.8-1.2525 2.8-2.8C10.8 1.65252 9.5475.400024 8 .400024c-1.5475 0-2.8 1.252496-2.8 2.799996s1.2525 2.8 2.8 2.8Zm1.92.8h-.2075c-.52.25-1.0975.40001-1.7125.40001s-1.19-.15001-1.7125-.40001H6.08c-1.59 0-2.88 1.29001-2.88 2.88001V10.4c0 .6625.5375 1.2 1.2 1.2h7.2c.6625 0 1.2-.5375 1.2-1.2v-.71997c0-1.59-1.29-2.88001-2.88-2.88001Zm-5.5925-.335c-.29-.28749-.6875-.465-1.1275-.465H1.6c-.8825 0-1.6.71751-1.6 1.60001v.8c0 .4425.3575.8.8.8h1.6475c.1575-1.185.8725-2.1825 1.88-2.73501Z" fill="#9FA2B4"/></svg>