<svg width="12" height="16" fill="none" xmlns="http://www.w3.org/2000/svg"><path opacity=".4" d="M3.50187 14.1984c.00032.1966.05844.3891.1675.5528l.53407.8029c.09123.1372.21497.2498.36022.3276.14524.0779.30748.1186.47228.1186h1.92844c.16479 0 .32703-.0407.47227-.1186.14525-.0778.26899-.1904.36023-.3276l.53406-.8029c.10901-.1637.16728-.356.1675-.5528L8.49969 13H3.50031l.00156 1.1984ZM.5 5.5c0 1.38656.51406 2.65156 1.36125 3.61812.51625.58906 1.32375 1.81968 1.63156 2.85778.00125.0082.00219.0163.00344.0244h5.0075c.00125-.0081.00219-.0159.00344-.0244.30781-1.0381 1.11531-2.26872 1.63161-2.85778C10.9859 8.15156 11.5 6.88656 11.5 5.5c0-3.04344-2.47156-5.50937887-5.51719-5.50000387C2.795.00968363.5 2.59281.5 5.5ZM6 3C4.62156 3 3.5 4.12156 3.5 5.5c0 .27625-.22375.5-.5.5s-.5-.22375-.5-.5C2.5 3.57 4.07 2 6 2c.27625 0 .5.22375.5.5S6.27625 3 6 3Z" fill="#9FA2B4"/></svg>