<svg width="16" height="16" fill="none" xmlns="http://www.w3.org/2000/svg"><path opacity=".4" d="M15.5232 8.94116H8.54406L13.192 13.5891c.1776.1776.47.1921.6526.02 1.1383-1.0724 1.9212-2.5179 2.1509-4.14294.0394-.27823-.1914-.525-.4723-.525Zm-.4656-1.90588c-.2424-3.51352-3.05-6.321161-6.56354-6.563513-.26824-.01853-.49412.207646-.49412.476469V7.5294h6.58146c.2688 0 .4947-.22588.4762-.49412ZM6.58818 8.94116v-6.9791c0-.28088-.24677-.51177-.52471-.47235C2.55847 1.985-.120646 5.04705.00405986 8.71675.132295 12.4856 3.3773 15.5761 7.14788 15.5288c1.48236-.0185 2.85206-.4962 3.97822-1.295.2324-.1647.2477-.5068.0462-.7082L6.58818 8.94116Z" fill="#9FA2B4"/></svg>