<svg width="16" height="16" fill="none" xmlns="http://www.w3.org/2000/svg"><path opacity=".4" d="M15.2313 9.86558 13.9 9.09683c.1344-.725.1344-1.46875 0-2.19375l1.3313-.76875c.1531-.0875.2218-.26875.1718-.4375-.3468-1.1125-.9375-2.11875-1.7093-2.95625-.1188-.12812-.3125-.15937-.4625-.07187L11.9 3.43746c-.5594-.48125-1.2031-.85313-1.9-1.09688V.806206c0-.175-.12186-.328125-.29373-.365625-1.14688-.25625-2.32188-.24375-3.4125 0-.17188.0375-.29375.190625-.29375.365625V2.34371c-.69375.24687-1.3375.61875-1.9 1.09687l-1.32813-.76875c-.15312-.0875-.34375-.05937-.4625.07188C1.53752 3.57808.946895 4.58433.60002 5.69996c-.053125.16875.01875.35.171875.4375l1.331245.76875c-.13437.725-.13437 1.46875 0 2.19375l-1.331245.76875c-.153125.0875-.221875.26879-.171875.43749.346875 1.1125.9375 2.1188 1.70937 2.9563.11875.1281.3125.1593.4625.0718l1.33125-.7687c.55938.4812 1.20313.8531 1.9 1.0969V15.2c0 .175.12188.3281.29375.3656 1.14688.2562 2.32188.2437 3.4125 0 .17188-.0375.29371-.1906.29371-.3656v-1.5375c.6938-.2469 1.3375-.6188 1.9-1.0969l1.3313.7687c.1531.0875.3437.0594.4625-.0718.7719-.8344 1.3625-1.8407 1.7094-2.9563.0468-.1719-.0219-.35312-.175-.44062ZM8.00002 10.5c-1.37813 0-2.5-1.12192-2.5-2.50004 0-1.37813 1.12187-2.5 2.5-2.5 1.37812 0 2.49998 1.12187 2.49998 2.5C10.5 9.37808 9.37814 10.5 8.00002 10.5Z" fill="#9FA2B4"/></svg>