<svg width="14" height="12" fill="none" xmlns="http://www.w3.org/2000/svg"><path d="M.128568 2.26839 2.31563.125478c.17084-.1673306.44797-.1672771.61871 0L5.12132 2.26839c.27535.26973.07927.73162-.30937.73162H3.5v8.57139c0 .2367-.19586.4286-.4375.4286h-.875c-.24164 0-.4375-.1919-.4375-.4286V3.00001H.437935c-.3894021 0-.584144-.46243-.309367-.73162ZM6.5625 1.7143h7c.2416 0 .4375-.19187.4375-.42857V.428584c0-.236705-.1959-.42857055-.4375-.42857055h-7c-.24164 0-.4375.19186555-.4375.42857055v.857146c0 .2367.19586.42857.4375.42857ZM6.125 4.71429v-.85714c0-.2367.19586-.42857.4375-.42857h5.25c.2416 0 .4375.19187.4375.42857v.85714c0 .23671-.1959.42858-.4375.42858h-5.25c-.24164 0-.4375-.19187-.4375-.42858Zm0 6.85711v-.8571c0-.2367.19586-.4286.4375-.4286h1.75c.24164 0 .4375.1919.4375.4286v.8571c0 .2367-.19586.4286-.4375.4286h-1.75c-.24164 0-.4375-.1919-.4375-.4286Zm0-3.42854v-.85714c0-.23671.19586-.42857.4375-.42857h3.5c.2416 0 .4375.19186.4375.42857v.85714c0 .23671-.1959.42857-.4375.42857h-3.5c-.24164 0-.4375-.19186-.4375-.42857Z" fill="#C5C7CD"/></svg>