<svg width="12" height="16" fill="none" xmlns="http://www.w3.org/2000/svg"><path opacity=".4" d="M3.03506 11.3322c-.27156-.2716-.13-.195-.785-.3703-.29719-.0797-.55844-.2328-.79469-.4163L.0375617 14.0219c-.1371875.3365.1190623.7022.4821873.6884l1.646561-.0628 1.1325 1.1963c.25.2637.68875.1815.82594-.155l1.62656-3.9882c-.33875.1888-.71469.2994-1.10344.2994-.60937 0-1.18187-.2372-1.61281-.6678Zm8.92754 2.6897-1.4179-3.4763c-.2362.1838-.4975.3366-.79464.4163-.65844.1762-.51406.0994-.785.3703-.43094.4306-1.00375.6678-1.61312.6678-.38875 0-.76469-.1109-1.10344-.2994l1.62656 3.9882c.13719.3365.57625.4187.82594.155l1.13281-1.1963 1.64659.0628c.3631.0138.6193-.3522.4822-.6884ZM8.21881 10.625c.4775-.4859.53219-.4441 1.21219-.62937.43406-.11844.7734-.46375.8897-.90562.2337-.8875.1731-.78031.8109-1.42969.3178-.32344.4419-.795.3256-1.23687-.2334-.88688-.2337-.76313 0-1.65094.1163-.44188-.0078-.91344-.3256-1.23688-.6378-.64937-.5772-.5425-.8109-1.42968-.1163-.44188-.45564-.78719-.8897-.90563-.87125-.237812-.76625-.17562-1.40469-.825312C7.7085.0515703 7.24506-.0749922 6.811.0434453c-.87094.2374997-.74938.2378127-1.62188 0-.43406-.1184375-.8975.0078125-1.21531.3315627-.63781.649372-.53281.5875-1.40437.825312-.43407.11844-.77344.46375-.88969.90563-.23344.88718-.17313.78031-.810938 1.42968-.317813.32344-.442188.795-.325625 1.23688.233437.88625.23375.7625 0 1.65062-.11625.44188.007812.91344.325625 1.23719.637808.64938.577188.54219.810938 1.42969.11625.44187.45562.78718.88969.90562.69937.19067.75156.16067 1.21187.62937.41344.4209 1.0575.4963 1.55438.1819.19869-.1262.42918-.1931.66453-.1931.23535 0 .46584.0669.66453.1931.49656.3144 1.14062.239 1.55406-.1819ZM3.05194 5.49876c0-1.65719 1.32-3.00063 2.94812-3.00063 1.62813 0 2.94813 1.34344 2.94813 3.00063 0 1.65719-1.32 3.00062-2.94813 3.00062-1.62812 0-2.94812-1.34343-2.94812-3.00062Z" fill="#9FA2B4"/></svg>