<svg width="16" height="12" fill="none" xmlns="http://www.w3.org/2000/svg"><path d="M3.55556 3.33332h8.88884v5.33334H3.55556V3.33332ZM14.6667 5.99999c0 .73639.5969 1.33333 1.3333 1.33333v2.66667c0 .73641-.5969 1.33331-1.3333 1.33331H1.33333C.596944 11.3333 0 10.7364 0 9.99999V7.33332c.736389 0 1.33333-.59694 1.33333-1.33333C1.33333 5.2636.736389 4.66666 0 4.66666V1.99999C0 1.2636.596944.666656 1.33333.666656H14.6667C15.4031.666656 16 1.2636 16 1.99999v2.66667c-.7364 0-1.3333.59694-1.3333 1.33333ZM13.3333 3.1111c0-.36819-.2984-.66667-.6666-.66667H3.33333c-.36819 0-.66666.29848-.66666.66667v5.77778c0 .36819.29847.66666.66666.66666h9.33337c.3682 0 .6666-.29847.6666-.66666V3.1111Z" fill="#DDE2FF"/></svg>