<svg width="18" height="19" fill="none" xmlns="http://www.w3.org/2000/svg"><path d="M8 19c1.10375 0 1.99906-.8953 1.99906-2H6.00094c0 1.1047.89531 2 1.99906 2Zm6.7309-4.6784c-.6037-.6488-1.7334-1.6247-1.7334-4.8216 0-2.42812-1.7025-4.37188-3.99813-4.84875V4c0-.55219-.4475-1-.99937-1-.55188 0-.99938.44781-.99938 1v.65125C4.705 5.12812 3.0025 7.07188 3.0025 9.5c0 3.1969-1.12969 4.1728-1.73344 4.8216-.1875.2015-.270624.4425-.269061.6784.003441.5125.405621 1 1.003121 1H13.9969c.5975 0 1-.4875 1.0031-1 .0016-.2359-.0816-.4772-.2691-.6784Z" fill="#C5C7CD"/><circle cx="13" cy="5" r="3.75" fill="#3751FF" stroke="#F7F8FC" stroke-width="1.5"/></svg>